<svg id="Layer_1" data-name="Layer 1" xmlns="http://www.w3.org/2000/svg" viewBox="0 0 1271.52 723.25"><defs><style>.cls-1{fill:#fbbf24;}</style></defs><path class="cls-1" d="M1217.4,496.66a54.12,54.12,0,0,0-53,43A53.78,53.78,0,0,1,1175,517h-.29a252.64,252.64,0,0,1-199.83,97.75c-132.59,0-241.37-101.92-252.25-231.7-.59-7.06-.89-14.22-.89-21.43s.3-14.38.89-21.44c10.88-129.78,119.66-231.7,252.25-231.7a252.65,252.65,0,0,1,202.32,101h.72a53.68,53.68,0,0,1-14.8-33.35,53.68,53.68,0,0,0,15,33.35h-.19A53.86,53.86,0,1,0,1163,170.9a54.17,54.17,0,0,1,99.44-28.23h.26C1196.62,56,1092.27,0,974.86,0,845.6,0,732.18,67.81,668.24,169.8,604.3,67.81,490.88,0,361.63,0,161.91,0,0,161.91,0,361.63S161.91,723.25,361.63,723.25c129.25,0,242.67-67.81,306.61-169.8,63.94,102,177.36,169.8,306.62,169.8,115.21,0,217.85-53.88,284.06-137.82.79-1,1.58-2,2.36-3a2.14,2.14,0,0,1,.13-.19h0a54.09,54.09,0,0,0-44-85.57ZM361.63,614.76c-139.81,0-253.14-113.33-253.14-253.13S221.82,108.49,361.63,108.49c132.58,0,241.36,101.92,252.24,231.7.59,7.06.89,14.22.89,21.44s-.3,14.37-.89,21.43C603,512.84,494.21,614.76,361.63,614.76Zm802.67-74.4c-.11.59-.21,1.19-.31,1.79C1164.09,541.55,1164.19,541,1164.3,540.36Z"/></svg>